<mxfile host="app.diagrams.net" modified="2023-07-12T05:45:02.335Z" agent="Mozilla/5.0 (Windows NT 10.0; Win64; x64) AppleWebKit/537.36 (KHTML, like Gecko) Chrome/114.0.0.0 Safari/537.36" version="21.6.1" etag="LJ8Gd-3J_Gvy7NSrpshE" type="github">
  <diagram name="第 1 页" id="xHlVvCODJjh1_ycXmK6b">
    <mxGraphModel>
      <root>
        <mxCell id="0" />
        <mxCell id="1" parent="0" />
      </root>
    </mxGraphModel>
  </diagram>
</mxfile>
